<?xml version="1.0" standalone="no"?><!DOCTYPE svg PUBLIC "-//W3C//DTD SVG 1.1//EN" "http://www.w3.org/Graphics/SVG/1.1/DTD/svg11.dtd"><svg t="1597903777108" class="icon" viewBox="0 0 1024 1024" version="1.1" xmlns="http://www.w3.org/2000/svg" p-id="1144" xmlns:xlink="http://www.w3.org/1999/xlink" width="200" height="200"><defs><style type="text/css"></style></defs><path d="M193.255 624.915v266.82c0 22.223 18.016 40.239 40.239 40.239h125.745c22.223 0 40.239-18.016 40.239-40.239v-158.25c0-22.223 18.016-40.239 40.239-40.239H583.96c22.223 0 40.239 18.016 40.239 40.239v158.25c0 22.223 18.016 40.239 40.239 40.239h125.745c22.223 0 40.239-18.016 40.239-40.239v-266.82a48.515 48.515 0 0 0-13.114-33.172l-305.47-325.96-305.47 325.96a48.519 48.519 0 0 0-13.113 33.172z" fill="#00A9FF" p-id="1145"></path><path d="M125.564 594.878l386.27-412.192 386.291 412.192a35.935 35.935 0 0 0 26.222 11.363c31.457 0 47.733-37.558 26.222-60.511L538.057 105.562c-13.614-14.48-38.831-14.48-52.445 0L73.119 545.732c-21.51 22.953-5.235 60.51 26.222 60.51h0.001a35.936 35.936 0 0 0 26.222-11.364z" fill="#FF8A00" p-id="1146"></path></svg>